<?xml version="1.0" encoding="UTF-8"?>
<svg id="Layer_1" data-name="Layer 1" xmlns="http://www.w3.org/2000/svg" viewBox="0 0 391.1 60.7">
  <path d="M6.3,47.7c-2.42-.94-4.52-2.32-6.3-4.14l3.1-5.26.29-.65.5.29c.1.34.23.71.4,1.12.17.41.52.9,1.04,1.48,1.25,1.01,2.66,1.81,4.25,2.41,1.58.6,3.36.9,5.33.9,1.3,0,2.47-.18,3.53-.54,1.06-.36,1.98-.84,2.77-1.46.79-.62,1.4-1.35,1.84-2.21.43-.86.65-1.78.65-2.78,0-.76-.08-1.46-.25-2.08-.17-.62-.47-1.19-.9-1.72-.43-.52-1.01-1.05-1.73-1.57-.72-.52-1.66-1.1-2.81-1.72-1.15-.62-2.54-1.29-4.18-2-3.07-1.24-5.51-2.55-7.31-3.94-1.8-1.38-3.08-2.86-3.85-4.44-.77-1.57-1.15-3.27-1.15-5.08,0-2.19.58-4.13,1.73-5.8,1.15-1.67,2.77-2.98,4.86-3.94s4.52-1.43,7.31-1.43c1.73,0,3.37.23,4.93.68,1.56.46,3.01,1.09,4.36,1.91,1.34.82,2.54,1.85,3.6,3.1l-3.46,4.32-.43.58-.5-.36c-.05-.38-.14-.77-.29-1.15-.14-.38-.48-.86-1.01-1.44-1.06-1.01-2.18-1.69-3.38-2.05-1.2-.36-2.64-.54-4.32-.54-1.1,0-2.1.14-2.99.43-.89.29-1.65.72-2.27,1.29-.62.57-1.12,1.2-1.48,1.89-.36.69-.54,1.42-.54,2.18s.1,1.44.29,2.04c.19.6.5,1.18.94,1.75.43.57,1.04,1.16,1.84,1.75.79.6,1.8,1.19,3.02,1.79,1.22.6,2.7,1.25,4.43,1.97,2.26.95,4.13,1.88,5.62,2.79,1.49.91,2.65,1.87,3.49,2.89.84,1.02,1.45,2.12,1.84,3.29.38,1.17.58,2.49.58,3.97,0,2.05-.53,4.08-1.58,6.08-1.06,2-2.71,3.63-4.97,4.9-2.26,1.26-5.18,1.89-8.78,1.89-2.93,0-5.6-.47-8.03-1.4Z"/>
  <path d="M47.16,32.26l-3.82,3.6v12.46h-6.26V.43h6.91v.57c-.29.29-.47.6-.54.93-.07.33-.11.91-.11,1.72v25.65l15.26-14.26c.34.05.67.1,1.01.14.33.05.68.08,1.04.11.36.02.73.05,1.12.07.38.02.72.04,1.01.04h2.59l-13.68,13.03,15.77,19.87-7.56.29-12.74-16.34Z"/>
  <path d="M73.55,59.94c-1.27-.5-2.41-1.24-3.42-2.2l2.38-4.18.43-.65.5.29c.1.38.26.72.5,1.01.24.29.67.65,1.3,1.08.43.14.88.25,1.33.32.46.07.92.11,1.4.11,1.2,0,2.21-.29,3.02-.85.82-.57,1.55-1.47,2.2-2.7.65-1.23,1.28-2.77,1.91-4.61l6.62-19.54c.72-2.14,1.38-4.24,1.98-6.31.6-2.07,1-4.17,1.19-6.31h5.98c-.29,2.19-.8,4.42-1.55,6.7-.75,2.28-1.52,4.52-2.34,6.7l-8.21,22.82c-1.25,3.33-2.78,5.67-4.61,7.03-1.82,1.35-3.94,2.03-6.34,2.03-1.58,0-3.01-.25-4.28-.76ZM71.64,15.41h6.34l10.37,26.6-2.95,7.06-13.75-33.66Z"/>
  <path d="M110.02,48.31v-4.9h9.58V5.33h-9.14V.43h15.41v42.98h9.58v4.9h-25.42Z"/>
  <path d="M160.27,48.89c-2.4,0-4.6-.37-6.59-1.1-1.99-.73-3.72-1.81-5.18-3.24-1.46-1.42-2.58-3.2-3.35-5.33-.77-2.13-1.15-4.55-1.15-7.25s.4-5.19,1.19-7.32c.79-2.13,1.88-3.93,3.28-5.4,1.39-1.47,3.02-2.59,4.9-3.38,1.87-.78,3.86-1.17,5.98-1.17,1.87,0,3.65.32,5.33.97,1.68.64,3.13,1.61,4.36,2.89,1.22,1.29,2.2,2.92,2.92,4.89.72,1.98,1.08,4.3,1.08,6.96,0,.43-.01.89-.04,1.39-.02.5-.06.94-.11,1.32h-22.97c.1,1.92.44,3.57,1.04,4.95.6,1.38,1.38,2.5,2.34,3.37.96.87,2.05,1.51,3.28,1.93s2.53.63,3.92.63c1.1,0,2.15-.12,3.13-.36.98-.24,1.91-.62,2.77-1.15.86-.53,1.66-1.18,2.38-1.94l3.31,3.17c-.96,1.15-2.05,2.12-3.28,2.92-1.22.79-2.54,1.37-3.96,1.73-1.42.36-2.94.54-4.57.54ZM150.12,28.44h16.78c0-1.42-.19-2.67-.58-3.76-.38-1.09-.91-2.03-1.58-2.83-.67-.8-1.5-1.4-2.48-1.81-.98-.4-2.08-.6-3.28-.6-1.1,0-2.14.18-3.1.53-.96.35-1.84.91-2.63,1.67s-1.46,1.69-2.02,2.8c-.55,1.11-.92,2.44-1.12,4Z"/>
  <path d="M184.54,15.41h6.41l-.14,9.58-.79-.86c.29-1.49.78-2.81,1.48-3.96.7-1.15,1.54-2.14,2.52-2.95.98-.82,2.08-1.44,3.28-1.87,1.2-.43,2.45-.65,3.74-.65,1.78,0,3.4.3,4.86.9,1.46.6,2.8,1.52,4,2.77l-2.66,4.97-.29.65-.5-.29c-.14-.38-.3-.76-.47-1.12-.17-.36-.57-.78-1.19-1.26-.72-.53-1.42-.89-2.09-1.08-.67-.19-1.44-.29-2.3-.29-1.15,0-2.3.21-3.46.64-1.15.43-2.2,1.09-3.13,1.99-.94.9-1.67,2.05-2.2,3.45-.53,1.4-.79,3.05-.79,4.94v17.35h-6.26V15.41Z"/>
  <path d="M252,3.46h6.91v.58c-.29.29-.47.6-.54.94-.07.34-.11.91-.11,1.73v15.62h16.27V3.46h6.91v.58c-.29.29-.47.6-.54.94-.07.34-.11.91-.11,1.73v41.62h-6.26v-20.95h-16.27v20.95h-6.26V3.46Z"/>
  <path d="M300.38,48.89c-1.3,0-2.53-.18-3.71-.53-1.18-.36-2.23-.92-3.17-1.71-.94-.78-1.75-1.75-2.45-2.92-.7-1.16-1.22-2.56-1.58-4.19-.36-1.63-.54-3.5-.54-5.58l.07-18.55h6.05v18.51c0,1.84.17,3.42.5,4.72.33,1.3.82,2.34,1.44,3.12.62.78,1.36,1.34,2.2,1.67.84.33,1.72.5,2.63.5,1.1,0,2.15-.2,3.13-.6.98-.4,1.85-1.03,2.59-1.88.74-.85,1.33-1.93,1.76-3.23.43-1.3.65-2.83.65-4.57V15.41h6.12v27.75c0,.91.04,1.78.11,2.61.07.83.28,1.68.61,2.54h-5.83c-.24-.55-.41-1.1-.5-1.66-.1-.55-.16-1.12-.18-1.69-.03-.58-.04-1.14-.04-1.69-.53.91-1.14,1.72-1.84,2.41s-1.48,1.28-2.34,1.76c-.86.48-1.76.84-2.7,1.08-.94.24-1.93.36-2.99.36Z"/>
  <path d="M331.78,20.3h-7.13v-4.9h7.13v-2.46c0-2.99.56-5.44,1.69-7.34,1.13-1.9,2.65-3.32,4.57-4.23,1.92-.92,4.06-1.38,6.41-1.38,2.16,0,4.16.37,6.01,1.12,1.85.74,3.4,1.88,4.64,3.42l-2.88,4.39-.36.58-.5-.29c-.1-.38-.22-.77-.36-1.15-.14-.38-.48-.84-1.01-1.37-.82-.67-1.61-1.14-2.38-1.4-.77-.26-1.73-.4-2.88-.4-1.34,0-2.54.27-3.6.8-1.06.53-1.87,1.38-2.45,2.54-.58,1.16-.86,2.71-.86,4.64v2.54h10.51v4.9h-10.51v28.01h-6.05v-28.01Z"/>
  <path d="M367.78,20.3h-7.13v-4.9h7.13v-2.46c0-2.99.56-5.44,1.69-7.34,1.13-1.9,2.65-3.32,4.57-4.23,1.92-.92,4.06-1.38,6.41-1.38,2.16,0,4.16.37,6.01,1.12,1.85.74,3.4,1.88,4.64,3.42l-2.88,4.39-.36.58-.5-.29c-.1-.38-.22-.77-.36-1.15-.14-.38-.48-.84-1.01-1.37-.82-.67-1.61-1.14-2.38-1.4-.77-.26-1.73-.4-2.88-.4-1.34,0-2.54.27-3.6.8-1.06.53-1.87,1.38-2.45,2.54-.58,1.16-.86,2.71-.86,4.64v2.54h10.51v4.9h-10.51v28.01h-6.05v-28.01Z"/>
</svg>